<?xml version="1.0" encoding="UTF-8" standalone="no"?>
<!-- Created with Inkscape (http://www.inkscape.org/) -->

<svg
   xmlns:dc="http://purl.org/dc/elements/1.1/"
   xmlns:cc="http://creativecommons.org/ns#"
   xmlns:rdf="http://www.w3.org/1999/02/22-rdf-syntax-ns#"
   xmlns:svg="http://www.w3.org/2000/svg"
   xmlns="http://www.w3.org/2000/svg"
   xmlns:sodipodi="http://sodipodi.sourceforge.net/DTD/sodipodi-0.dtd"
   xmlns:inkscape="http://www.inkscape.org/namespaces/inkscape"
   version="1.0"
   width="250.77245"
   height="393.48929"
   id="svg2"
   inkscape:version="0.48.1 r9760"
   sodipodi:docname="rfmetronome.svg">
  <metadata
     id="metadata3111">
    <rdf:RDF>
      <cc:Work
         rdf:about="">
        <dc:format>image/svg+xml</dc:format>
        <dc:type
           rdf:resource="http://purl.org/dc/dcmitype/StillImage" />
        <dc:title></dc:title>
      </cc:Work>
    </rdf:RDF>
  </metadata>
  <sodipodi:namedview
     pagecolor="#ffffff"
     bordercolor="#666666"
     borderopacity="1"
     objecttolerance="10"
     gridtolerance="10"
     guidetolerance="10"
     inkscape:pageopacity="0"
     inkscape:pageshadow="2"
     inkscape:window-width="1280"
     inkscape:window-height="742"
     id="namedview3109"
     showgrid="false"
     inkscape:zoom="0.81831753"
     inkscape:cx="56.843447"
     inkscape:cy="207.67542"
     inkscape:window-x="0"
     inkscape:window-y="26"
     inkscape:window-maximized="1"
     inkscape:current-layer="svg2" />
  <defs
     id="defs4" />
  <path
     style="fill:#d8bd51;fill-opacity:1;stroke:#020000;stroke-width:8.73049355;stroke-miterlimit:4;stroke-opacity:1;stroke-dasharray:none"
     d="M 69.349542,17.594198 192.23609,26.043863 271.75353,365.35446 -26.918911,356.46263 z"
     id="rect4012"
     inkscape:connector-curvature="0"
     sodipodi:nodetypes="ccccc"
     inkscape:export-filename="/home/drt/Downloads/cat_at_96.png"
     inkscape:export-xdpi="23.11536"
     inkscape:export-ydpi="23.11536" />
  <g
     id="g3231"
     transform="translate(240.46946,-177.41302)"
     inkscape:export-filename="/home/drt/Downloads/cat_at_96.png"
     inkscape:export-xdpi="23.11536"
     inkscape:export-ydpi="23.11536"
     style="stroke-width:1.00802803;stroke-miterlimit:4;stroke-dasharray:none">
    <path
       sodipodi:nodetypes="cssssscc"
       d="m -136.62539,354.3026 c -9.44282,-63.58168 36.02081,-80.43434 41.410452,-93.16919 10.66522,-25.2002 26.360834,-44.03489 36.401552,-57.4848 9.316333,-12.47958 18.582074,-20.45446 21.372119,-0.0316 1.213816,8.885 -17.211311,35.76326 -36.369942,65.62258 -16.341726,25.46908 -39.521891,29.66513 -39.521881,83.80399 1e-5,46.02401 -22.03326,1.25904 -23.2923,1.25904 z"
       id="path3229-0"
       style="fill:#a05a2c;fill-opacity:1;fill-rule:evenodd;stroke:#000000;stroke-width:4.0079999;stroke-linecap:butt;stroke-linejoin:miter;stroke-miterlimit:4;stroke-opacity:1;stroke-dasharray:none"
       inkscape:connector-curvature="0" />
    <path
       sodipodi:nodetypes="csscssc"
       d="m -39.954533,211.84013 c -17.268699,22.42464 -33.322494,41.75228 -36.47204,47.00148 -31.961897,53.26935 -39.429027,46.40156 -43.429017,77.04042 -2.42044,18.53993 -3.15992,30.90045 -7.5625,28.71875 6.79152,9.20378 11.30134,14.08699 15.0625,-14.71875 6.05582,-46.37997 -2.84184,-36.29587 10.62756,-50.40796 23.772514,-24.90683 68.515807,-82.2562 61.773497,-87.63394 z"
       id="path3334-4"
       style="fill:#000000;fill-opacity:0.31372549;fill-rule:evenodd;stroke:none"
       inkscape:connector-curvature="0" />
  </g>
  <path
     inkscape:connector-curvature="0"
     style="fill:#a05a2c;fill-opacity:1;fill-rule:nonzero;stroke:#000000;stroke-width:4.03211212;stroke-linecap:round;stroke-linejoin:round;stroke-miterlimit:4;stroke-opacity:1;stroke-dasharray:none"
     id="path2383"
     d="m 248.77244,250.78333 a 123.38622,123.38622 0 1 1 -246.7724354,0 123.38622,123.38622 0 1 1 246.7724354,0 z"
     inkscape:export-filename="/home/drt/Downloads/cat_at_96.png"
     inkscape:export-xdpi="23.11536"
     inkscape:export-ydpi="23.11536" />
  <g
     id="g3201"
     transform="translate(-879.59595,381.63217)"
     inkscape:export-filename="/home/drt/Downloads/cat_at_36.png"
     inkscape:export-xdpi="3.0999999"
     inkscape:export-ydpi="3.0999999">
    <path
       d="M 105.87105,146.28276 C 96.42823,82.70108 160.27015,78.42304 153.08517,53.11357 145.61218,26.7896 116.57291,34.22792 101.46439,30.45079 86.35588,26.67366 88.58519,12.71708 97.68727,5.26993 c 6.92474,-5.6657 63.54782,-8.72934 76.80163,32.73512 18.43661,57.6788 -45.32556,52.87981 -45.32555,107.01867 1e-5,46.02401 -22.03326,1.25904 -23.2923,1.25904 z"
       id="path3229"
       style="fill:#a05a2c;fill-opacity:1;fill-rule:evenodd;stroke:#000000;stroke-width:4;stroke-linecap:butt;stroke-linejoin:miter;stroke-miterlimit:4;stroke-opacity:1;stroke-dasharray:none"
       inkscape:connector-curvature="0" />
    <path
       d="m 159.07982,15.53497 c 3.32029,4.18641 6.04243,9.13781 7.90625,14.96875 18.4366,57.67879 -45.31251,52.89239 -45.3125,107.03125 1e-5,18.69726 -3.65992,22.40045 -8.0625,20.21875 6.79152,9.20378 15.56251,16.33149 15.5625,-12.71875 -1e-5,-54.13886 63.7491,-49.35246 45.3125,-107.03125 -3.13021,-9.79283 -8.66394,-17.09101 -15.40625,-22.46875 z m -68.15625,6.40625 c 1.11665,3.77553 4.39341,6.96554 10.53125,8.5 10.7683,2.69207 28.6179,-0.30073 40.6875,7.28125 -10.6157,-16.84853 -34.83866,-11.44404 -48.1875,-14.78125 -1.11193,-0.27798 -2.10297,-0.6184 -3.03125,-1 z"
       id="path3334"
       style="fill:#000000;fill-opacity:0.31372549;fill-rule:evenodd;stroke:none"
       inkscape:connector-curvature="0" />
  </g>
  <path
     inkscape:connector-curvature="0"
     style="fill:#000000;fill-opacity:0.31372549;fill-rule:nonzero;stroke:none"
     id="path3306"
     d="m 79.23607,136.34747 c -14.36099,5.80252 -27.38155,14.22976 -38.46875,24.6875 3.24205,5.51817 7.44937,10.58864 12.78125,14.40625 -12.29764,16.09809 -19.59375,36.19288 -19.59375,58 -10e-6,52.81939 42.86813,95.6875 95.6875,95.6875 52.81937,1e-5 95.68749,-42.86814 95.6875,-95.6875 -1e-5,-21.60026 -7.19425,-41.51067 -19.28125,-57.53125 3.72308,-2.54705 6.88807,-5.69344 9.59375,-9.1875 -10.5655,-11.33916 -23.21864,-20.7061 -37.375,-27.4375 -0.30415,0.36067 -0.58954,0.726 -0.875,1.09375 -2.15697,2.77875 -3.55358,5.36087 -4.34375,7.78125 -13.03473,-6.65512 -27.77552,-10.40625 -43.40625,-10.40625 -15.28542,1e-5 -29.74164,3.58641 -42.5625,9.96875 -0.81307,-2.29301 -2.16194,-4.73428 -4.1875,-7.34375 -1.08401,-1.39649 -2.3231,-2.74044 -3.65625,-4.03125 z"
     inkscape:export-filename="/home/drt/Downloads/cat_at_96.png"
     inkscape:export-xdpi="23.11536"
     inkscape:export-ydpi="23.11536" />
  <path
     inkscape:connector-curvature="0"
     style="fill:#a05a2c;fill-opacity:1;fill-rule:nonzero;stroke:#000000;stroke-width:4.03211212;stroke-linecap:round;stroke-linejoin:round;stroke-miterlimit:4;stroke-opacity:1;stroke-dasharray:none"
     id="path2385"
     d="m 33.64232,104.2081 c -2.56473,0.0569 -4.45986,0.58737 -5.40625,1.65625 -3.48739,3.93872 -0.59007,39.93434 21.0625,55.4375 -12.29763,16.09808 -19.59375,36.19288 -19.59375,58 0,52.81938 42.86813,95.6875 95.6875,95.6875 52.81938,0 95.68749,-42.86814 95.6875,-95.6875 0,-21.60027 -7.19425,-41.51067 -19.28125,-57.53125 22.26459,-15.23176 25.27317,-51.92712 21.75,-55.90625 -5.04743,-5.70068 -37.51434,3.76675 -50.40625,20.375 -2.15696,2.77874 -3.55358,5.36087 -4.34375,7.78125 -13.03472,-6.65513 -27.77552,-10.40625 -43.40625,-10.40625 -15.28541,0 -29.74164,3.58641 -42.5625,9.96875 -0.81306,-2.29302 -2.16194,-4.73428 -4.1875,-7.34375 -10.47468,-13.4942 -33.88617,-22.27787 -45,-22.03125 z"
     inkscape:export-filename="/home/drt/Downloads/cat_at_96.png"
     inkscape:export-xdpi="23.11536"
     inkscape:export-ydpi="23.11536" />
  <path
     inkscape:connector-curvature="0"
     style="fill:#000000;fill-opacity:0.31372549;fill-rule:nonzero;stroke:none"
     id="path3293"
     d="m 213.57982,182.22247 c 1.20286,6.04504 1.84375,12.28867 1.84375,18.6875 -1e-5,52.81936 -42.86811,95.68752 -95.6875,95.6875 -39.61453,0 -73.62368,-24.09767 -88.15625,-58.4375 8.77148,43.79048 47.45335,76.84375 93.8125,76.84375 52.81938,-3e-5 95.68749,-42.86814 95.6875,-95.6875 0,-13.15396 -2.68382,-25.68998 -7.5,-37.09375 z"
     inkscape:export-filename="/home/drt/Downloads/cat_at_96.png"
     inkscape:export-xdpi="23.11536"
     inkscape:export-ydpi="23.11536" />
  <path
     inkscape:connector-curvature="0"
     style="fill:#ffffff;fill-opacity:1;fill-rule:nonzero;stroke:#000000;stroke-width:4.03211308;stroke-linecap:round;stroke-linejoin:round;stroke-miterlimit:4;stroke-opacity:1;stroke-dasharray:none"
     id="path2387"
     d="m 120.35007,205.77258 a 27.384189,27.384189 0 1 1 -54.768377,0 27.384189,27.384189 0 1 1 54.768377,0 z"
     inkscape:export-filename="/home/drt/Downloads/cat_at_96.png"
     inkscape:export-xdpi="23.11536"
     inkscape:export-ydpi="23.11536" />
  <path
     inkscape:connector-curvature="0"
     style="fill:#ffffff;fill-opacity:1;fill-rule:nonzero;stroke:#000000;stroke-width:4.03211308;stroke-linecap:round;stroke-linejoin:round;stroke-miterlimit:4;stroke-opacity:1;stroke-dasharray:none"
     id="path2391"
     d="m 183.93175,205.77258 a 27.38419,27.38419 0 0 1 -54.76838,0 27.38419,27.38419 0 1 1 54.76838,0 z"
     inkscape:export-filename="/home/drt/Downloads/cat_at_96.png"
     inkscape:export-xdpi="23.11536"
     inkscape:export-ydpi="23.11536" />
  <path
     inkscape:connector-curvature="0"
     style="fill:#000000;fill-opacity:1;fill-rule:nonzero;stroke:none"
     id="path2393"
     d="m 109.6482,208.92018 a 8.4985425,8.4985425 0 0 1 -16.997085,0 8.4985425,8.4985425 0 1 1 16.997085,0 z"
     inkscape:export-filename="/home/drt/Downloads/cat_at_96.png"
     inkscape:export-xdpi="23.11536"
     inkscape:export-ydpi="23.11536" />
  <path
     inkscape:connector-curvature="0"
     style="fill:#000000;fill-opacity:1;fill-rule:nonzero;stroke:none"
     id="path2395"
     d="m 156.2328,208.92018 a 8.498545,8.498545 0 0 1 -16.99709,0 8.498545,8.498545 0 1 1 16.99709,0 z"
     inkscape:export-filename="/home/drt/Downloads/cat_at_96.png"
     inkscape:export-xdpi="23.11536"
     inkscape:export-ydpi="23.11536" />
  <path
     inkscape:connector-curvature="0"
     style="fill:#000000;fill-opacity:1;fill-rule:nonzero;stroke:none"
     id="path2397"
     d="m 141.45291,260.59811 c 0,8.82955 -9.66968,15.99557 -16.06669,15.99557 -6.89138,0 -16.06669,-7.16602 -16.06669,-15.99557 0,-8.82955 7.19788,-11.07385 16.06669,-11.07385 8.86882,0 16.06669,2.2443 16.06669,11.07385 z"
     inkscape:export-filename="/home/drt/Downloads/cat_at_96.png"
     inkscape:export-xdpi="23.11536"
     inkscape:export-ydpi="23.11536" />
  <g
     id="g3178"
     transform="translate(-202.59828,-242.5637)"
     inkscape:export-filename="/home/drt/Downloads/cat_at_96.png"
     inkscape:export-xdpi="23.11536"
     inkscape:export-ydpi="23.11536"
     style="stroke-width:1.00802803;stroke-miterlimit:4;stroke-dasharray:none">
    <path
       inkscape:connector-curvature="0"
       style="fill:none;stroke:#000000;stroke-width:1.07639778;stroke-linecap:round;stroke-linejoin:round;stroke-miterlimit:4;stroke-opacity:1;stroke-dasharray:none"
       id="path2400"
       transform="matrix(0.937483,0,0,0.9354839,13.993399,33.331567)"
       d="M 392.75058,487.02238 A 39.030338,39.030338 0 0 1 335.535,530.92544" />
    <path
       inkscape:connector-curvature="0"
       style="fill:none;stroke:#000000;stroke-width:1.07639778;stroke-linecap:round;stroke-linejoin:round;stroke-miterlimit:4;stroke-opacity:1;stroke-dasharray:none"
       id="path3176"
       transform="matrix(-0.937483,0,0,0.9354839,641.97561,33.331567)"
       d="M 392.75058,487.02238 A 39.030338,39.030338 0 0 1 335.535,530.92544" />
  </g>
  <path
     inkscape:connector-curvature="0"
     style="fill:#000000;fill-opacity:0.31372549;fill-rule:nonzero;stroke:none"
     id="path3339"
     d="m 233.95482,192.15997 c 3.20192,10.97469 4.90625,22.58942 4.90625,34.59375 10e-6,68.10918 -55.26581,123.375 -123.375,123.375 -46.82508,0 -87.59785,-26.13219 -108.5,-64.59375 15.02313,51.20031 62.36706,88.62501 118.40625,88.625 68.10919,0 123.375,-55.26582 123.375,-123.375 0,-21.20992 -5.37317,-41.18573 -14.8125,-58.625 z"
     inkscape:export-filename="/home/drt/Downloads/cat_at_96.png"
     inkscape:export-xdpi="23.11536"
     inkscape:export-ydpi="23.11536" />
  <g
     id="g3188"
     transform="translate(-200.07643,-248.2294)"
     inkscape:export-filename="/home/drt/Downloads/cat_at_96.png"
     inkscape:export-xdpi="23.11536"
     inkscape:export-ydpi="23.11536"
     style="stroke-width:1;stroke-miterlimit:4;stroke-dasharray:none">
    <path
       inkscape:connector-curvature="0"
       style="fill:none;stroke:#000000;stroke-width:1;stroke-linecap:round;stroke-linejoin:miter;stroke-miterlimit:4;stroke-opacity:1;stroke-dasharray:none"
       id="path3182"
       d="m 365.34735,505.66655 c 44.67355,-16.60772 66.50445,3.89308 66.50445,3.89308" />
    <path
       inkscape:connector-curvature="0"
       style="fill:none;stroke:#000000;stroke-width:1;stroke-linecap:round;stroke-linejoin:miter;stroke-miterlimit:4;stroke-opacity:1;stroke-dasharray:none"
       id="path3184"
       d="m 358.93972,516.80324 c 31.63347,-8.95824 52.35147,13.88671 52.35147,13.88671" />
    <path
       inkscape:connector-curvature="0"
       style="fill:none;stroke:#000000;stroke-width:1;stroke-linecap:round;stroke-linejoin:miter;stroke-miterlimit:4;stroke-opacity:1;stroke-dasharray:none"
       id="path3186"
       d="m 356.30922,528.71442 c 24.33775,-2.57606 33.65692,19.1258 33.65692,19.1258" />
  </g>
  <g
     id="g3193"
     transform="matrix(-1,0,0,1,451.47841,-248.2294)"
     inkscape:export-filename="/home/drt/Downloads/cat_at_96.png"
     inkscape:export-xdpi="23.11536"
     inkscape:export-ydpi="23.11536"
     style="stroke-width:1.00802803;stroke-miterlimit:4;stroke-dasharray:none">
    <path
       inkscape:connector-curvature="0"
       style="fill:none;stroke:#000000;stroke-width:1.00802803;stroke-linecap:round;stroke-linejoin:miter;stroke-miterlimit:4;stroke-opacity:1;stroke-dasharray:none"
       id="path3195"
       d="m 365.34735,505.66655 c 44.67355,-16.60772 66.50445,3.89308 66.50445,3.89308" />
    <path
       inkscape:connector-curvature="0"
       style="fill:none;stroke:#000000;stroke-width:1.00802803;stroke-linecap:round;stroke-linejoin:miter;stroke-miterlimit:4;stroke-opacity:1;stroke-dasharray:none"
       id="path3197"
       d="m 358.93972,516.80324 c 31.63347,-8.95824 52.35147,13.88671 52.35147,13.88671" />
    <path
       inkscape:connector-curvature="0"
       style="fill:none;stroke:#000000;stroke-width:1.00802803;stroke-linecap:round;stroke-linejoin:miter;stroke-miterlimit:4;stroke-opacity:1;stroke-dasharray:none"
       id="path3199"
       d="m 356.30922,528.71442 c 24.33775,-2.57606 33.65692,19.1258 33.65692,19.1258" />
  </g>
  <path
     inkscape:connector-curvature="0"
     style="fill:#784421;fill-opacity:1;fill-rule:evenodd;stroke:#000000;stroke-width:4.03211212;stroke-linecap:butt;stroke-linejoin:round;stroke-miterlimit:4;stroke-opacity:1;stroke-dasharray:none"
     id="path3231"
     d="m 181.41363,142.50563 c 2.51809,-19.51517 31.47608,-32.73512 35.25321,-29.58752 3.77713,3.14761 -4.66939,33.40334 -20.77421,40.91891 -9.44282,4.40664 -14.47899,-6.29522 -14.479,-11.33139 z"
     inkscape:export-filename="/home/drt/Downloads/cat_at_96.png"
     inkscape:export-xdpi="23.11536"
     inkscape:export-ydpi="23.11536" />
  <path
     inkscape:connector-curvature="0"
     style="fill:#784421;fill-opacity:1;fill-rule:evenodd;stroke:#000000;stroke-width:4.03211212;stroke-linecap:butt;stroke-linejoin:round;stroke-miterlimit:4;stroke-opacity:1;stroke-dasharray:none"
     id="path3233"
     d="m 69.62224,142.50563 c -2.51809,-19.51517 -31.47608,-32.73512 -35.25321,-29.58752 -3.77713,3.14761 4.66939,33.40334 20.77421,40.91891 9.44282,4.40664 14.47899,-6.29522 14.479,-11.33139 z"
     inkscape:export-filename="/home/drt/Downloads/cat_at_96.png"
     inkscape:export-xdpi="23.11536"
     inkscape:export-ydpi="23.11536" />
  <g
     id="g3035"
     transform="translate(0,-8)"
     inkscape:export-filename="/home/drt/Downloads/cat_at_96.png"
     inkscape:export-xdpi="23.11536"
     inkscape:export-ydpi="23.11536">
    <path
       inkscape:export-ydpi="8.400794"
       inkscape:export-xdpi="8.400794"
       inkscape:export-filename="/home/drt/Downloads/cat_at_36.png"
       d="m 119.40577,370.71162 c 0,21.54475 -17.48559,20.77422 -39.03034,20.77422 -11.9799,0 -22.70476,0.23824 -29.86625,-3.25428 -5.71779,-2.78845 -9.16409,-7.95509 -9.16409,-17.51994 0,-21.54474 17.48559,-39.03033 39.03034,-39.03033 21.54475,0 39.03034,17.48559 39.03034,39.03033 z"
       id="path3238"
       style="fill:#a05a2c;fill-opacity:1;fill-rule:nonzero;stroke:#000000;stroke-width:4.03211212;stroke-linecap:round;stroke-linejoin:round;stroke-miterlimit:4;stroke-opacity:1;stroke-dasharray:none"
       inkscape:connector-curvature="0" />
    <path
       inkscape:export-ydpi="8.400794"
       inkscape:export-xdpi="8.400794"
       inkscape:export-filename="/home/drt/Downloads/cat_at_36.png"
       d="m 100.39232,337.50372 c 4.72285,6.47998 7.53125,14.46734 7.53125,23.09375 1e-5,12.4664 -5.83515,23.55857 -14.90625,30.75 15.08125,-0.57257 25.90625,-3.69375 25.90625,-20.625 0,-14.03175 -7.40662,-26.33968 -18.53125,-33.21875 z"
       id="path3332"
       style="fill:#000000;fill-opacity:0.31372549;fill-rule:nonzero;stroke:none"
       inkscape:connector-curvature="0" />
    <g
       style="stroke-width:1.00802803;stroke-miterlimit:4;stroke-dasharray:none"
       inkscape:export-ydpi="8.400794"
       inkscape:export-xdpi="8.400794"
       inkscape:export-filename="/home/drt/Downloads/cat_at_36.png"
       transform="matrix(-1,0,0,1,452.39936,-239.35541)"
       id="g2469">
      <path
         d="m 357.34172,628.69417 c -3.5026,-11.33139 0.50038,-24.55134 0.50038,-24.55134"
         id="path2471"
         style="fill:none;stroke:#000000;stroke-width:1.00802803;stroke-linecap:round;stroke-linejoin:miter;stroke-miterlimit:4;stroke-opacity:1;stroke-dasharray:none"
         inkscape:connector-curvature="0" />
      <path
         d="m 375.36715,631.21226 c 4.29303,-18.25613 -0.61329,-32.73512 -0.61329,-32.73512"
         id="path2473"
         style="fill:none;stroke:#000000;stroke-width:1.00802803;stroke-linecap:round;stroke-linejoin:miter;stroke-miterlimit:4;stroke-opacity:1;stroke-dasharray:none"
         inkscape:connector-curvature="0" />
      <path
         d="m 393.62142,629.3237 c 8.81331,-13.84948 1.25905,-25.18087 1.25905,-25.18087"
         id="path2475"
         style="fill:none;stroke:#000000;stroke-width:1.00802803;stroke-linecap:round;stroke-linejoin:miter;stroke-miterlimit:4;stroke-opacity:1;stroke-dasharray:none"
         inkscape:connector-curvature="0" />
    </g>
  </g>
  <g
     id="g3026"
     transform="translate(0,-8)"
     inkscape:export-filename="/home/drt/Downloads/cat_at_96.png"
     inkscape:export-xdpi="23.11536"
     inkscape:export-ydpi="23.11536">
    <path
       inkscape:export-ydpi="8.400794"
       inkscape:export-xdpi="8.400794"
       inkscape:export-filename="/home/drt/Downloads/cat_at_36.png"
       d="m 209.42735,370.71163 c 0,21.54474 -17.48559,20.77422 -39.03034,20.77422 -21.54474,0 -39.03033,0.77052 -39.03033,-20.77422 0,-21.54475 17.48559,-39.03034 39.03033,-39.03034 21.54475,0 39.03034,17.48559 39.03034,39.03034 z"
       id="path3235"
       style="fill:#a05a2c;fill-opacity:1;fill-rule:nonzero;stroke:#000000;stroke-width:4.03211212;stroke-linecap:round;stroke-linejoin:round;stroke-miterlimit:4;stroke-opacity:1;stroke-dasharray:none"
       inkscape:connector-curvature="0" />
    <path
       inkscape:export-ydpi="8.400794"
       inkscape:export-xdpi="8.400794"
       inkscape:export-filename="/home/drt/Downloads/cat_at_36.png"
       d="m 190.89232,337.50372 c 4.72285,6.47998 7.53125,14.46734 7.53125,23.09375 10e-6,12.4664 -5.83515,23.55857 -14.90625,30.75 15.08125,-0.57257 25.90625,-3.69375 25.90625,-20.625 0,-14.03175 -7.40662,-26.33968 -18.53125,-33.21875 z"
       id="path3327"
       style="fill:#000000;fill-opacity:0.31372549;fill-rule:nonzero;stroke:none"
       inkscape:connector-curvature="0" />
    <path
       inkscape:export-ydpi="8.400794"
       inkscape:export-xdpi="8.400794"
       inkscape:export-filename="/home/drt/Downloads/cat_at_36.png"
       d="m 136.57982,351.22247 c -3.31254,5.73475 -5.21875,12.4056 -5.21875,19.5 0,17.5051 11.55269,20.26284 27.4375,20.6875 -15.77979,-6.57803 -23.80465,-22.20756 -22.21875,-40.1875 z"
       id="path3349"
       style="fill:#000000;fill-opacity:0.31372549;fill-rule:nonzero;stroke:none"
       inkscape:connector-curvature="0" />
    <g
       style="stroke-width:1.00802803;stroke-miterlimit:4;stroke-dasharray:none"
       inkscape:export-ydpi="8.400794"
       inkscape:export-xdpi="8.400794"
       inkscape:export-filename="/home/drt/Downloads/cat_at_36.png"
       transform="translate(-200.89937,-239.35541)"
       id="g2508">
      <path
         d="m 357.34172,628.69417 c -3.5026,-11.33139 0.50038,-24.55134 0.50038,-24.55134"
         id="path2510"
         style="fill:none;stroke:#000000;stroke-width:1.00802803;stroke-linecap:round;stroke-linejoin:miter;stroke-miterlimit:4;stroke-opacity:1;stroke-dasharray:none"
         inkscape:connector-curvature="0" />
      <path
         d="m 375.36715,631.21226 c 4.29303,-18.25613 -0.61329,-32.73512 -0.61329,-32.73512"
         id="path2512"
         style="fill:none;stroke:#000000;stroke-width:1.00802803;stroke-linecap:round;stroke-linejoin:miter;stroke-miterlimit:4;stroke-opacity:1;stroke-dasharray:none"
         inkscape:connector-curvature="0" />
      <path
         d="m 393.62142,629.3237 c 8.81331,-13.84948 1.25905,-25.18087 1.25905,-25.18087"
         id="path2514"
         style="fill:none;stroke:#000000;stroke-width:1.00802803;stroke-linecap:round;stroke-linejoin:miter;stroke-miterlimit:4;stroke-opacity:1;stroke-dasharray:none"
         inkscape:connector-curvature="0" />
    </g>
  </g>
  <path
     style="fill:#ffd42a;stroke:#020000;stroke-width:5.08449364;stroke-miterlimit:4;stroke-opacity:1;stroke-dasharray:none"
     inkscape:transform-center-x="-42.800735"
     inkscape:transform-center-y="-17.030374"
     d="m 184.75869,52.808641 c 15.39011,9.048941 31.03185,12.845835 8.77747,23.543785 -22.2544,10.697952 -19.40445,11.59475 -34.6377,2.402964 -15.23319,-9.191783 -10.14004,-11.814044 -6.33046,-28.670105 3.8096,-16.856061 16.80058,-6.325585 32.19069,2.723356 z"
     id="path3239"
     inkscape:connector-curvature="0"
     sodipodi:nodetypes="zzzzz"
     inkscape:export-xdpi="23.11536"
     inkscape:export-ydpi="23.11536"
     inkscape:export-filename="/home/drt/Downloads/cat_at_96.png" />
  <rect
     style="fill:#ffd42a;stroke:#020000;stroke-width:5.04400015;stroke-miterlimit:4;stroke-opacity:1;stroke-dasharray:none"
     id="rect4010"
     width="19.805143"
     height="11.883086"
     x="-788.24475"
     y="-220.47018"
     inkscape:export-filename="/home/drt/Downloads/cat_at_36.png"
     inkscape:export-xdpi="3.0999999"
     inkscape:export-ydpi="3.0999999" />
</svg>
